<?xml version="1.0" encoding="utf-8" standalone="no"?>
<!DOCTYPE svg PUBLIC "-//W3C//DTD SVG 1.1//EN"
  "http://www.w3.org/Graphics/SVG/1.1/DTD/svg11.dtd">
<svg height="256.32pt" version="1.1" viewBox="0 0 836.64 256.32" width="836.64pt" xmlns="http://www.w3.org/2000/svg" xmlns:xlink="http://www.w3.org/1999/xlink">
 <metadata>
  <rdf:RDF xmlns:cc="http://creativecommons.org/ns#" xmlns:dc="http://purl.org/dc/elements/1.1/" xmlns:rdf="http://www.w3.org/1999/02/22-rdf-syntax-ns#">
   <cc:Work>
    <dc:type rdf:resource="http://purl.org/dc/dcmitype/StillImage"/>
    <dc:date>2023-05-17T22:21:53.168825</dc:date>
    <dc:format>image/svg+xml</dc:format>
    <dc:creator>
     <cc:Agent>
      <dc:title>Matplotlib v3.4.3, https://matplotlib.org/</dc:title>
     </cc:Agent>
    </dc:creator>
   </cc:Work>
  </rdf:RDF>
 </metadata>
 <defs>
  <style type="text/css">*{stroke-linecap:butt;stroke-linejoin:round;}</style>
 </defs>
 <g id="figure_1">
  <g id="patch_1">
   <path d="M 0 256.32 
L 836.64 256.32 
L 836.64 0 
L 0 0 
z
" style="fill:#ffffff;"/>
  </g>
  <g id="axes_1">
   <g id="patch_2">
    <path d="M 80.922406 225.199667 
L 817.03125 225.199667 
L 817.03125 19.936 
L 80.922406 19.936 
z
" style="fill:#ffffff;"/>
   </g>
   <g id="matplotlib.axis_1">
    <g id="xtick_1">
     <g id="line2d_1">
      <path clip-path="url(#pcc22c80da4)" d="M 106.820432 225.199667 
L 106.820432 19.936 
" style="fill:none;stroke:#b0b0b0;stroke-linecap:square;stroke-width:0.8;"/>
     </g>
     <g id="line2d_2">
      <defs>
       <path d="M 0 0 
L 0 3.5 
" id="m4575012566" style="stroke:#000000;stroke-width:0.8;"/>
      </defs>
      <g>
       <use style="stroke:#000000;stroke-width:0.8;" x="106.820432" xlink:href="#m4575012566" y="225.199667"/>
      </g>
     </g>
     <g id="text_1">
      <!-- 0 -->
      <g transform="translate(103.639182 239.798104)scale(0.1 -0.1)">
       <defs>
        <path d="M 2034 4250 
Q 1547 4250 1301 3770 
Q 1056 3291 1056 2328 
Q 1056 1369 1301 889 
Q 1547 409 2034 409 
Q 2525 409 2770 889 
Q 3016 1369 3016 2328 
Q 3016 3291 2770 3770 
Q 2525 4250 2034 4250 
z
M 2034 4750 
Q 2819 4750 3233 4129 
Q 3647 3509 3647 2328 
Q 3647 1150 3233 529 
Q 2819 -91 2034 -91 
Q 1250 -91 836 529 
Q 422 1150 422 2328 
Q 422 3509 836 4129 
Q 1250 4750 2034 4750 
z
" id="DejaVuSans-30" transform="scale(0.015625)"/>
       </defs>
       <use xlink:href="#DejaVuSans-30"/>
      </g>
     </g>
    </g>
    <g id="xtick_2">
     <g id="line2d_3">
      <path clip-path="url(#pcc22c80da4)" d="M 201.338773 225.199667 
L 201.338773 19.936 
" style="fill:none;stroke:#b0b0b0;stroke-linecap:square;stroke-width:0.8;"/>
     </g>
     <g id="line2d_4">
      <g>
       <use style="stroke:#000000;stroke-width:0.8;" x="201.338773" xlink:href="#m4575012566" y="225.199667"/>
      </g>
     </g>
     <g id="text_2">
      <!-- 25 -->
      <g transform="translate(194.976273 239.798104)scale(0.1 -0.1)">
       <defs>
        <path d="M 1228 531 
L 3431 531 
L 3431 0 
L 469 0 
L 469 531 
Q 828 903 1448 1529 
Q 2069 2156 2228 2338 
Q 2531 2678 2651 2914 
Q 2772 3150 2772 3378 
Q 2772 3750 2511 3984 
Q 2250 4219 1831 4219 
Q 1534 4219 1204 4116 
Q 875 4013 500 3803 
L 500 4441 
Q 881 4594 1212 4672 
Q 1544 4750 1819 4750 
Q 2544 4750 2975 4387 
Q 3406 4025 3406 3419 
Q 3406 3131 3298 2873 
Q 3191 2616 2906 2266 
Q 2828 2175 2409 1742 
Q 1991 1309 1228 531 
z
" id="DejaVuSans-32" transform="scale(0.015625)"/>
        <path d="M 691 4666 
L 3169 4666 
L 3169 4134 
L 1269 4134 
L 1269 2991 
Q 1406 3038 1543 3061 
Q 1681 3084 1819 3084 
Q 2600 3084 3056 2656 
Q 3513 2228 3513 1497 
Q 3513 744 3044 326 
Q 2575 -91 1722 -91 
Q 1428 -91 1123 -41 
Q 819 9 494 109 
L 494 744 
Q 775 591 1075 516 
Q 1375 441 1709 441 
Q 2250 441 2565 725 
Q 2881 1009 2881 1497 
Q 2881 1984 2565 2268 
Q 2250 2553 1709 2553 
Q 1456 2553 1204 2497 
Q 953 2441 691 2322 
L 691 4666 
z
" id="DejaVuSans-35" transform="scale(0.015625)"/>
       </defs>
       <use xlink:href="#DejaVuSans-32"/>
       <use x="63.623047" xlink:href="#DejaVuSans-35"/>
      </g>
     </g>
    </g>
    <g id="xtick_3">
     <g id="line2d_5">
      <path clip-path="url(#pcc22c80da4)" d="M 295.857115 225.199667 
L 295.857115 19.936 
" style="fill:none;stroke:#b0b0b0;stroke-linecap:square;stroke-width:0.8;"/>
     </g>
     <g id="line2d_6">
      <g>
       <use style="stroke:#000000;stroke-width:0.8;" x="295.857115" xlink:href="#m4575012566" y="225.199667"/>
      </g>
     </g>
     <g id="text_3">
      <!-- 50 -->
      <g transform="translate(289.494615 239.798104)scale(0.1 -0.1)">
       <use xlink:href="#DejaVuSans-35"/>
       <use x="63.623047" xlink:href="#DejaVuSans-30"/>
      </g>
     </g>
    </g>
    <g id="xtick_4">
     <g id="line2d_7">
      <path clip-path="url(#pcc22c80da4)" d="M 390.375456 225.199667 
L 390.375456 19.936 
" style="fill:none;stroke:#b0b0b0;stroke-linecap:square;stroke-width:0.8;"/>
     </g>
     <g id="line2d_8">
      <g>
       <use style="stroke:#000000;stroke-width:0.8;" x="390.375456" xlink:href="#m4575012566" y="225.199667"/>
      </g>
     </g>
     <g id="text_4">
      <!-- 75 -->
      <g transform="translate(384.012956 239.798104)scale(0.1 -0.1)">
       <defs>
        <path d="M 525 4666 
L 3525 4666 
L 3525 4397 
L 1831 0 
L 1172 0 
L 2766 4134 
L 525 4134 
L 525 4666 
z
" id="DejaVuSans-37" transform="scale(0.015625)"/>
       </defs>
       <use xlink:href="#DejaVuSans-37"/>
       <use x="63.623047" xlink:href="#DejaVuSans-35"/>
      </g>
     </g>
    </g>
    <g id="xtick_5">
     <g id="line2d_9">
      <path clip-path="url(#pcc22c80da4)" d="M 484.893798 225.199667 
L 484.893798 19.936 
" style="fill:none;stroke:#b0b0b0;stroke-linecap:square;stroke-width:0.8;"/>
     </g>
     <g id="line2d_10">
      <g>
       <use style="stroke:#000000;stroke-width:0.8;" x="484.893798" xlink:href="#m4575012566" y="225.199667"/>
      </g>
     </g>
     <g id="text_5">
      <!-- 100 -->
      <g transform="translate(475.350048 239.798104)scale(0.1 -0.1)">
       <defs>
        <path d="M 794 531 
L 1825 531 
L 1825 4091 
L 703 3866 
L 703 4441 
L 1819 4666 
L 2450 4666 
L 2450 531 
L 3481 531 
L 3481 0 
L 794 0 
L 794 531 
z
" id="DejaVuSans-31" transform="scale(0.015625)"/>
       </defs>
       <use xlink:href="#DejaVuSans-31"/>
       <use x="63.623047" xlink:href="#DejaVuSans-30"/>
       <use x="127.246094" xlink:href="#DejaVuSans-30"/>
      </g>
     </g>
    </g>
    <g id="xtick_6">
     <g id="line2d_11">
      <path clip-path="url(#pcc22c80da4)" d="M 579.412139 225.199667 
L 579.412139 19.936 
" style="fill:none;stroke:#b0b0b0;stroke-linecap:square;stroke-width:0.8;"/>
     </g>
     <g id="line2d_12">
      <g>
       <use style="stroke:#000000;stroke-width:0.8;" x="579.412139" xlink:href="#m4575012566" y="225.199667"/>
      </g>
     </g>
     <g id="text_6">
      <!-- 125 -->
      <g transform="translate(569.868389 239.798104)scale(0.1 -0.1)">
       <use xlink:href="#DejaVuSans-31"/>
       <use x="63.623047" xlink:href="#DejaVuSans-32"/>
       <use x="127.246094" xlink:href="#DejaVuSans-35"/>
      </g>
     </g>
    </g>
    <g id="xtick_7">
     <g id="line2d_13">
      <path clip-path="url(#pcc22c80da4)" d="M 673.930481 225.199667 
L 673.930481 19.936 
" style="fill:none;stroke:#b0b0b0;stroke-linecap:square;stroke-width:0.8;"/>
     </g>
     <g id="line2d_14">
      <g>
       <use style="stroke:#000000;stroke-width:0.8;" x="673.930481" xlink:href="#m4575012566" y="225.199667"/>
      </g>
     </g>
     <g id="text_7">
      <!-- 150 -->
      <g transform="translate(664.386731 239.798104)scale(0.1 -0.1)">
       <use xlink:href="#DejaVuSans-31"/>
       <use x="63.623047" xlink:href="#DejaVuSans-35"/>
       <use x="127.246094" xlink:href="#DejaVuSans-30"/>
      </g>
     </g>
    </g>
    <g id="xtick_8">
     <g id="line2d_15">
      <path clip-path="url(#pcc22c80da4)" d="M 768.448822 225.199667 
L 768.448822 19.936 
" style="fill:none;stroke:#b0b0b0;stroke-linecap:square;stroke-width:0.8;"/>
     </g>
     <g id="line2d_16">
      <g>
       <use style="stroke:#000000;stroke-width:0.8;" x="768.448822" xlink:href="#m4575012566" y="225.199667"/>
      </g>
     </g>
     <g id="text_8">
      <!-- 175 -->
      <g transform="translate(758.905072 239.798104)scale(0.1 -0.1)">
       <use xlink:href="#DejaVuSans-31"/>
       <use x="63.623047" xlink:href="#DejaVuSans-37"/>
       <use x="127.246094" xlink:href="#DejaVuSans-35"/>
      </g>
     </g>
    </g>
    <g id="text_9">
     <!-- Time -->
     <g transform="translate(436.743234 253.476229)scale(0.1 -0.1)">
      <defs>
       <path d="M -19 4666 
L 3928 4666 
L 3928 4134 
L 2272 4134 
L 2272 0 
L 1638 0 
L 1638 4134 
L -19 4134 
L -19 4666 
z
" id="DejaVuSans-54" transform="scale(0.015625)"/>
       <path d="M 603 3500 
L 1178 3500 
L 1178 0 
L 603 0 
L 603 3500 
z
M 603 4863 
L 1178 4863 
L 1178 4134 
L 603 4134 
L 603 4863 
z
" id="DejaVuSans-69" transform="scale(0.015625)"/>
       <path d="M 3328 2828 
Q 3544 3216 3844 3400 
Q 4144 3584 4550 3584 
Q 5097 3584 5394 3201 
Q 5691 2819 5691 2113 
L 5691 0 
L 5113 0 
L 5113 2094 
Q 5113 2597 4934 2840 
Q 4756 3084 4391 3084 
Q 3944 3084 3684 2787 
Q 3425 2491 3425 1978 
L 3425 0 
L 2847 0 
L 2847 2094 
Q 2847 2600 2669 2842 
Q 2491 3084 2119 3084 
Q 1678 3084 1418 2786 
Q 1159 2488 1159 1978 
L 1159 0 
L 581 0 
L 581 3500 
L 1159 3500 
L 1159 2956 
Q 1356 3278 1631 3431 
Q 1906 3584 2284 3584 
Q 2666 3584 2933 3390 
Q 3200 3197 3328 2828 
z
" id="DejaVuSans-6d" transform="scale(0.015625)"/>
       <path d="M 3597 1894 
L 3597 1613 
L 953 1613 
Q 991 1019 1311 708 
Q 1631 397 2203 397 
Q 2534 397 2845 478 
Q 3156 559 3463 722 
L 3463 178 
Q 3153 47 2828 -22 
Q 2503 -91 2169 -91 
Q 1331 -91 842 396 
Q 353 884 353 1716 
Q 353 2575 817 3079 
Q 1281 3584 2069 3584 
Q 2775 3584 3186 3129 
Q 3597 2675 3597 1894 
z
M 3022 2063 
Q 3016 2534 2758 2815 
Q 2500 3097 2075 3097 
Q 1594 3097 1305 2825 
Q 1016 2553 972 2059 
L 3022 2063 
z
" id="DejaVuSans-65" transform="scale(0.015625)"/>
      </defs>
      <use xlink:href="#DejaVuSans-54"/>
      <use x="57.958984" xlink:href="#DejaVuSans-69"/>
      <use x="85.742188" xlink:href="#DejaVuSans-6d"/>
      <use x="183.154297" xlink:href="#DejaVuSans-65"/>
     </g>
    </g>
   </g>
   <g id="matplotlib.axis_2">
    <g id="ytick_1">
     <g id="line2d_17">
      <path clip-path="url(#pcc22c80da4)" d="M 80.922406 215.8695 
L 817.03125 215.8695 
" style="fill:none;stroke:#b0b0b0;stroke-linecap:square;stroke-width:0.8;"/>
     </g>
     <g id="line2d_18">
      <defs>
       <path d="M 0 0 
L -3.5 0 
" id="m541aea0ac4" style="stroke:#000000;stroke-width:0.8;"/>
      </defs>
      <g>
       <use style="stroke:#000000;stroke-width:0.8;" x="80.922406" xlink:href="#m541aea0ac4" y="215.8695"/>
      </g>
     </g>
     <g id="text_10">
      <!-- 0 -->
      <g transform="translate(67.559906 219.668719)scale(0.1 -0.1)">
       <use xlink:href="#DejaVuSans-30"/>
      </g>
     </g>
    </g>
    <g id="ytick_2">
     <g id="line2d_19">
      <path clip-path="url(#pcc22c80da4)" d="M 80.922406 178.231992 
L 817.03125 178.231992 
" style="fill:none;stroke:#b0b0b0;stroke-linecap:square;stroke-width:0.8;"/>
     </g>
     <g id="line2d_20">
      <g>
       <use style="stroke:#000000;stroke-width:0.8;" x="80.922406" xlink:href="#m541aea0ac4" y="178.231992"/>
      </g>
     </g>
     <g id="text_11">
      <!-- 5 -->
      <g transform="translate(67.559906 182.03121)scale(0.1 -0.1)">
       <use xlink:href="#DejaVuSans-35"/>
      </g>
     </g>
    </g>
    <g id="ytick_3">
     <g id="line2d_21">
      <path clip-path="url(#pcc22c80da4)" d="M 80.922406 140.594483 
L 817.03125 140.594483 
" style="fill:none;stroke:#b0b0b0;stroke-linecap:square;stroke-width:0.8;"/>
     </g>
     <g id="line2d_22">
      <g>
       <use style="stroke:#000000;stroke-width:0.8;" x="80.922406" xlink:href="#m541aea0ac4" y="140.594483"/>
      </g>
     </g>
     <g id="text_12">
      <!-- 10 -->
      <g transform="translate(61.197406 144.393702)scale(0.1 -0.1)">
       <use xlink:href="#DejaVuSans-31"/>
       <use x="63.623047" xlink:href="#DejaVuSans-30"/>
      </g>
     </g>
    </g>
    <g id="ytick_4">
     <g id="line2d_23">
      <path clip-path="url(#pcc22c80da4)" d="M 80.922406 102.956975 
L 817.03125 102.956975 
" style="fill:none;stroke:#b0b0b0;stroke-linecap:square;stroke-width:0.8;"/>
     </g>
     <g id="line2d_24">
      <g>
       <use style="stroke:#000000;stroke-width:0.8;" x="80.922406" xlink:href="#m541aea0ac4" y="102.956975"/>
      </g>
     </g>
     <g id="text_13">
      <!-- 15 -->
      <g transform="translate(61.197406 106.756194)scale(0.1 -0.1)">
       <use xlink:href="#DejaVuSans-31"/>
       <use x="63.623047" xlink:href="#DejaVuSans-35"/>
      </g>
     </g>
    </g>
    <g id="ytick_5">
     <g id="line2d_25">
      <path clip-path="url(#pcc22c80da4)" d="M 80.922406 65.319467 
L 817.03125 65.319467 
" style="fill:none;stroke:#b0b0b0;stroke-linecap:square;stroke-width:0.8;"/>
     </g>
     <g id="line2d_26">
      <g>
       <use style="stroke:#000000;stroke-width:0.8;" x="80.922406" xlink:href="#m541aea0ac4" y="65.319467"/>
      </g>
     </g>
     <g id="text_14">
      <!-- 20 -->
      <g transform="translate(61.197406 69.118686)scale(0.1 -0.1)">
       <use xlink:href="#DejaVuSans-32"/>
       <use x="63.623047" xlink:href="#DejaVuSans-30"/>
      </g>
     </g>
    </g>
    <g id="ytick_6">
     <g id="line2d_27">
      <path clip-path="url(#pcc22c80da4)" d="M 80.922406 27.681959 
L 817.03125 27.681959 
" style="fill:none;stroke:#b0b0b0;stroke-linecap:square;stroke-width:0.8;"/>
     </g>
     <g id="line2d_28">
      <g>
       <use style="stroke:#000000;stroke-width:0.8;" x="80.922406" xlink:href="#m541aea0ac4" y="27.681959"/>
      </g>
     </g>
     <g id="text_15">
      <!-- 25 -->
      <g transform="translate(61.197406 31.481177)scale(0.1 -0.1)">
       <use xlink:href="#DejaVuSans-32"/>
       <use x="63.623047" xlink:href="#DejaVuSans-35"/>
      </g>
     </g>
    </g>
    <g id="text_16">
     <!-- Speed -->
     <g transform="translate(55.117719 138.243615)rotate(-90)scale(0.1 -0.1)">
      <defs>
       <path d="M 3425 4513 
L 3425 3897 
Q 3066 4069 2747 4153 
Q 2428 4238 2131 4238 
Q 1616 4238 1336 4038 
Q 1056 3838 1056 3469 
Q 1056 3159 1242 3001 
Q 1428 2844 1947 2747 
L 2328 2669 
Q 3034 2534 3370 2195 
Q 3706 1856 3706 1288 
Q 3706 609 3251 259 
Q 2797 -91 1919 -91 
Q 1588 -91 1214 -16 
Q 841 59 441 206 
L 441 856 
Q 825 641 1194 531 
Q 1563 422 1919 422 
Q 2459 422 2753 634 
Q 3047 847 3047 1241 
Q 3047 1584 2836 1778 
Q 2625 1972 2144 2069 
L 1759 2144 
Q 1053 2284 737 2584 
Q 422 2884 422 3419 
Q 422 4038 858 4394 
Q 1294 4750 2059 4750 
Q 2388 4750 2728 4690 
Q 3069 4631 3425 4513 
z
" id="DejaVuSans-53" transform="scale(0.015625)"/>
       <path d="M 1159 525 
L 1159 -1331 
L 581 -1331 
L 581 3500 
L 1159 3500 
L 1159 2969 
Q 1341 3281 1617 3432 
Q 1894 3584 2278 3584 
Q 2916 3584 3314 3078 
Q 3713 2572 3713 1747 
Q 3713 922 3314 415 
Q 2916 -91 2278 -91 
Q 1894 -91 1617 61 
Q 1341 213 1159 525 
z
M 3116 1747 
Q 3116 2381 2855 2742 
Q 2594 3103 2138 3103 
Q 1681 3103 1420 2742 
Q 1159 2381 1159 1747 
Q 1159 1113 1420 752 
Q 1681 391 2138 391 
Q 2594 391 2855 752 
Q 3116 1113 3116 1747 
z
" id="DejaVuSans-70" transform="scale(0.015625)"/>
       <path d="M 2906 2969 
L 2906 4863 
L 3481 4863 
L 3481 0 
L 2906 0 
L 2906 525 
Q 2725 213 2448 61 
Q 2172 -91 1784 -91 
Q 1150 -91 751 415 
Q 353 922 353 1747 
Q 353 2572 751 3078 
Q 1150 3584 1784 3584 
Q 2172 3584 2448 3432 
Q 2725 3281 2906 2969 
z
M 947 1747 
Q 947 1113 1208 752 
Q 1469 391 1925 391 
Q 2381 391 2643 752 
Q 2906 1113 2906 1747 
Q 2906 2381 2643 2742 
Q 2381 3103 1925 3103 
Q 1469 3103 1208 2742 
Q 947 2381 947 1747 
z
" id="DejaVuSans-64" transform="scale(0.015625)"/>
      </defs>
      <use xlink:href="#DejaVuSans-53"/>
      <use x="63.476562" xlink:href="#DejaVuSans-70"/>
      <use x="126.953125" xlink:href="#DejaVuSans-65"/>
      <use x="188.476562" xlink:href="#DejaVuSans-65"/>
      <use x="250" xlink:href="#DejaVuSans-64"/>
     </g>
    </g>
   </g>
   <g id="line2d_29">
    <path clip-path="url(#pcc22c80da4)" d="M 114.381899 198.753472 
L 118.162633 185.841884 
L 121.943366 166.721462 
L 125.7241 150.290923 
L 129.504834 184.164681 
L 133.285567 215.8695 
L 137.066301 215.8695 
L 140.847035 215.8695 
L 144.627768 215.8695 
L 148.408502 215.8695 
L 152.189236 215.8695 
L 155.969969 215.8695 
L 159.750703 215.8695 
L 163.531437 215.8695 
L 167.31217 215.8695 
L 171.092904 215.8695 
L 174.873638 215.8695 
L 178.654371 215.8695 
L 182.435105 215.8695 
L 186.215839 215.8695 
L 189.996572 215.8695 
L 193.777306 215.8695 
L 197.55804 215.8695 
L 201.338773 215.8695 
L 205.119507 215.8695 
L 208.900241 215.8695 
L 212.680974 215.8695 
L 216.461708 215.8695 
L 220.242442 215.8695 
L 224.023175 215.8695 
L 227.803909 215.8695 
L 231.584643 215.8695 
L 235.365376 215.8695 
L 239.14611 215.8695 
L 242.926844 215.8695 
L 246.707577 215.8695 
L 250.488311 215.8695 
L 254.269045 215.8695 
L 258.049778 215.8695 
L 261.830512 215.8695 
L 265.611246 215.8695 
L 269.391979 215.8695 
L 273.172713 215.8695 
L 276.953447 215.8695 
L 280.73418 215.8695 
L 284.514914 215.8695 
L 288.295648 215.8695 
L 292.076381 215.8695 
L 295.857115 215.8695 
L 299.637849 215.8695 
L 303.418582 215.8695 
L 307.199316 215.8695 
L 310.98005 215.8695 
L 314.760783 215.8695 
L 318.541517 198.291321 
L 322.32225 185.990522 
L 326.102984 170.511008 
L 329.883718 159.310197 
L 333.664451 148.887845 
L 337.445185 134.469398 
L 341.225919 142.66591 
L 345.006652 176.539667 
L 348.787386 188.863674 
L 352.56812 186.790213 
L 356.348853 170.102227 
L 360.129587 155.511863 
L 363.910321 143.180259 
L 367.691054 131.311912 
L 371.471788 121.491476 
L 375.252522 106.55892 
L 379.033255 90.083108 
L 382.813989 71.847795 
L 386.594723 59.766891 
L 390.375456 42.491492 
L 394.15619 35.917002 
L 397.936924 29.266167 
" style="fill:none;stroke:#1f77b4;stroke-linecap:square;stroke-width:1.5;"/>
   </g>
   <g id="line2d_30">
    <path clip-path="url(#pcc22c80da4)" d="M 159.750703 198.73507 
L 163.531437 186.581908 
L 167.31217 169.015837 
L 171.092904 152.508026 
L 174.873638 186.381784 
L 178.654371 215.8695 
L 360.129587 215.8695 
L 363.910321 201.834433 
L 371.471788 167.073946 
L 375.252522 151.559611 
L 379.033255 134.987323 
L 382.813989 122.324864 
L 386.594723 105.167009 
L 390.375456 100.699499 
L 394.15619 102.104746 
L 397.936924 101.134417 
L 401.717657 101.347467 
L 405.498391 107.169849 
L 409.279125 103.179307 
L 413.059858 105.506969 
L 416.840592 105.624684 
L 420.621326 120.218209 
L 424.402059 149.265636 
L 428.182793 165.439846 
L 431.963527 193.031329 
L 435.74426 191.896295 
L 439.524994 172.912539 
L 443.305728 155.679696 
L 447.086461 144.573901 
L 450.867195 131.158612 
L 454.647929 121.165513 
L 458.428662 101.836579 
L 462.209396 99.92495 
L 465.99013 101.360635 
L 469.770863 103.37467 
L 473.551597 103.631507 
L 477.332331 107.921064 
L 481.113064 103.030041 
L 484.893798 101.785667 
L 488.674532 102.817005 
L 492.455265 105.476361 
L 496.235999 104.021232 
L 500.016733 103.501203 
L 503.797466 101.433113 
L 507.5782 103.384938 
L 511.358934 137.258695 
L 515.139667 144.838339 
L 518.920401 131.960483 
L 522.701135 118.321857 
L 526.481868 103.841806 
L 530.262602 127.119722 
L 534.043335 160.99348 
L 537.824069 151.000466 
L 541.604803 137.925823 
L 545.385536 126.253742 
L 552.947004 194.001257 
L 556.727737 215.8695 
L 738.202953 215.8695 
L 741.983687 200.81247 
L 745.76442 192.457441 
L 749.545154 181.792469 
L 753.325888 171.648798 
L 757.106621 157.217315 
L 757.106621 157.217315 
" style="fill:none;stroke:#ff7f0e;stroke-linecap:square;stroke-width:1.5;"/>
   </g>
   <g id="line2d_31">
    <path clip-path="url(#pcc22c80da4)" d="M 171.092904 205.982821 
L 174.873638 193.445477 
L 178.654371 174.293443 
L 182.435105 171.902125 
L 186.215839 205.775882 
L 189.996572 214.199052 
L 193.777306 215.831536 
L 208.900241 215.8695 
L 363.910321 215.8695 
L 367.691054 206.294118 
L 371.471788 190.316447 
L 375.252522 177.565216 
L 379.033255 159.040256 
L 382.813989 141.725402 
L 386.594723 128.36195 
L 390.375456 113.820406 
L 394.15619 108.334392 
L 397.936924 114.831006 
L 401.717657 114.545424 
L 405.498391 110.187284 
L 409.279125 116.70793 
L 413.059858 110.940772 
L 416.840592 114.178739 
L 420.621326 115.959872 
L 424.402059 112.62192 
L 428.182793 114.39696 
L 431.963527 140.16934 
L 435.74426 159.68579 
L 439.524994 178.327445 
L 443.305728 189.888945 
L 447.086461 189.394262 
L 450.867195 196.757133 
L 454.647929 184.377693 
L 458.428662 171.542156 
L 462.209396 152.275289 
L 465.99013 141.535562 
L 469.770863 124.767043 
L 473.551597 116.785222 
L 477.332331 107.628824 
L 481.113064 111.157931 
L 484.893798 113.619054 
L 488.674532 116.852715 
L 492.455265 107.92316 
L 496.235999 109.389544 
L 500.016733 109.508159 
L 503.797466 111.293441 
L 507.5782 114.831867 
L 511.358934 110.532195 
L 515.139667 112.436487 
L 518.920401 114.478962 
L 522.701135 115.731281 
L 526.481868 115.675459 
L 530.262602 134.430667 
L 534.043335 150.884958 
L 537.824069 146.088188 
L 541.604803 135.557636 
L 545.385536 118.514885 
L 549.16627 112.155769 
L 552.947004 118.492633 
L 556.727737 152.366391 
L 560.508471 141.33624 
L 564.289205 125.095198 
L 571.850672 191.293362 
L 575.631406 206.402447 
L 579.412139 215.498863 
L 590.75434 215.835938 
L 605.877275 215.8695 
L 741.983687 215.8695 
L 745.76442 205.867497 
L 749.545154 189.81207 
L 753.325888 179.181475 
L 757.106621 171.349869 
L 760.887355 173.306128 
L 764.668089 155.412329 
L 768.448822 141.945296 
L 776.01029 110.504983 
L 779.791023 91.765528 
L 783.571757 77.932127 
L 783.571757 77.932127 
" style="fill:none;stroke:#2ca02c;stroke-linecap:square;stroke-width:1.5;"/>
   </g>
   <g id="line2d_32">
    <path clip-path="url(#pcc22c80da4)" d="M 178.654371 202.601425 
L 182.435105 192.00324 
L 186.215839 176.157646 
L 189.996572 158.721949 
L 193.777306 146.637352 
L 197.55804 144.15436 
L 201.338773 141.750375 
L 205.119507 146.441773 
L 208.900241 149.568771 
L 212.680974 147.061726 
L 216.461708 143.541276 
L 220.242442 146.021074 
L 224.023175 149.853959 
L 227.803909 149.224173 
L 231.584643 146.966183 
L 235.365376 140.379862 
L 239.14611 144.456848 
L 242.926844 141.881173 
L 246.707577 142.587059 
L 250.488311 149.683237 
L 254.269045 140.859217 
L 258.049778 145.3226 
L 261.830512 142.413759 
L 265.611246 143.721762 
L 269.391979 149.641944 
L 273.172713 147.61778 
L 276.953447 144.946714 
L 280.73418 148.110426 
L 284.514914 147.794618 
L 288.295648 167.205873 
L 292.076381 166.889461 
L 295.857115 168.246659 
L 299.637849 151.592187 
L 303.418582 140.282304 
L 307.199316 147.416666 
L 310.98005 146.54248 
L 314.760783 144.637971 
L 318.541517 141.045858 
L 322.32225 171.16682 
L 326.102984 157.358127 
L 329.883718 141.683475 
L 333.664451 142.788078 
L 337.445185 160.599278 
L 341.225919 182.442827 
L 345.006652 188.402786 
L 348.787386 187.23909 
L 352.56812 190.197993 
L 356.348853 175.033508 
L 360.129587 161.198544 
L 363.910321 143.95156 
L 367.691054 130.834152 
L 371.471788 116.772165 
L 375.252522 118.51045 
L 379.033255 149.558967 
L 382.813989 169.858282 
L 386.594723 188.620686 
L 390.375456 177.499674 
L 394.15619 164.27902 
" style="fill:none;stroke:#d62728;stroke-linecap:square;stroke-width:1.5;"/>
   </g>
   <g id="line2d_33">
    <path clip-path="url(#pcc22c80da4)" d="M 140.847035 197.437289 
L 144.627768 183.775065 
L 148.408502 166.071961 
L 152.189236 187.080999 
L 155.969969 211.540048 
L 159.750703 212.968633 
L 163.531437 215.228851 
L 167.31217 215.759928 
L 171.092904 215.85312 
L 174.873638 215.868084 
L 178.654371 215.8695 
L 182.435105 215.8695 
L 186.215839 215.8695 
L 189.996572 215.8695 
L 193.777306 215.8695 
L 197.55804 215.8695 
L 201.338773 215.8695 
L 205.119507 215.8695 
L 208.900241 215.8695 
L 212.680974 215.8695 
L 216.461708 215.8695 
L 220.242442 215.8695 
L 224.023175 215.8695 
L 227.803909 215.8695 
L 231.584643 215.8695 
L 235.365376 215.8695 
L 239.14611 215.8695 
L 242.926844 215.8695 
L 246.707577 215.8695 
L 250.488311 215.8695 
L 254.269045 215.8695 
L 258.049778 215.8695 
L 261.830512 215.8695 
L 265.611246 215.8695 
L 269.391979 215.8695 
L 273.172713 215.8695 
L 276.953447 215.8695 
L 280.73418 215.8695 
L 284.514914 215.8695 
L 288.295648 215.8695 
L 292.076381 215.8695 
L 295.857115 215.8695 
L 299.637849 215.8695 
L 303.418582 215.8695 
L 307.199316 215.8695 
L 310.98005 215.8695 
L 314.760783 215.8695 
L 318.541517 215.8695 
L 322.32225 204.77106 
L 326.102984 187.043642 
L 329.883718 177.060021 
L 333.664451 165.606481 
L 337.445185 149.548406 
L 341.225919 134.795676 
L 345.006652 136.994024 
L 348.787386 170.867781 
L 352.56812 181.633053 
L 356.348853 184.743167 
L 360.129587 202.661074 
L 363.910321 204.438765 
L 367.691054 198.748253 
L 371.471788 187.691568 
L 375.252522 169.898896 
L 379.033255 156.382051 
L 382.813989 139.497989 
L 386.594723 123.684018 
L 390.375456 109.59219 
L 394.15619 93.157208 
L 397.936924 100.231522 
L 401.717657 134.10528 
L 405.498391 167.979037 
L 409.279125 194.866302 
L 413.059858 194.96782 
L 416.840592 196.630376 
L 420.621326 180.032882 
" style="fill:none;stroke:#9467bd;stroke-linecap:square;stroke-width:1.5;"/>
   </g>
   <g id="patch_3">
    <path d="M 80.922406 225.199667 
L 80.922406 19.936 
" style="fill:none;stroke:#000000;stroke-linecap:square;stroke-linejoin:miter;stroke-width:0.8;"/>
   </g>
   <g id="patch_4">
    <path d="M 817.03125 225.199667 
L 817.03125 19.936 
" style="fill:none;stroke:#000000;stroke-linecap:square;stroke-linejoin:miter;stroke-width:0.8;"/>
   </g>
   <g id="patch_5">
    <path d="M 80.922406 225.199667 
L 817.03125 225.199667 
" style="fill:none;stroke:#000000;stroke-linecap:square;stroke-linejoin:miter;stroke-width:0.8;"/>
   </g>
   <g id="patch_6">
    <path d="M 80.922406 19.936 
L 817.03125 19.936 
" style="fill:none;stroke:#000000;stroke-linecap:square;stroke-linejoin:miter;stroke-width:0.8;"/>
   </g>
   <g id="text_17">
    <!-- speed -->
    <g transform="translate(430.849328 13.936)scale(0.12 -0.12)">
     <defs>
      <path d="M 2834 3397 
L 2834 2853 
Q 2591 2978 2328 3040 
Q 2066 3103 1784 3103 
Q 1356 3103 1142 2972 
Q 928 2841 928 2578 
Q 928 2378 1081 2264 
Q 1234 2150 1697 2047 
L 1894 2003 
Q 2506 1872 2764 1633 
Q 3022 1394 3022 966 
Q 3022 478 2636 193 
Q 2250 -91 1575 -91 
Q 1294 -91 989 -36 
Q 684 19 347 128 
L 347 722 
Q 666 556 975 473 
Q 1284 391 1588 391 
Q 1994 391 2212 530 
Q 2431 669 2431 922 
Q 2431 1156 2273 1281 
Q 2116 1406 1581 1522 
L 1381 1569 
Q 847 1681 609 1914 
Q 372 2147 372 2553 
Q 372 3047 722 3315 
Q 1072 3584 1716 3584 
Q 2034 3584 2315 3537 
Q 2597 3491 2834 3397 
z
" id="DejaVuSans-73" transform="scale(0.015625)"/>
     </defs>
     <use xlink:href="#DejaVuSans-73"/>
     <use x="52.099609" xlink:href="#DejaVuSans-70"/>
     <use x="115.576172" xlink:href="#DejaVuSans-65"/>
     <use x="177.099609" xlink:href="#DejaVuSans-65"/>
     <use x="238.623047" xlink:href="#DejaVuSans-64"/>
    </g>
   </g>
   <g id="legend_1">
    <g id="patch_7">
     <path d="M 571.2625 101.326625 
L 812.03125 101.326625 
L 812.03125 24.936 
L 571.2625 24.936 
z
" style="fill:#ffffff;opacity:0.8;stroke:#cccccc;stroke-linejoin:miter;"/>
    </g>
    <g id="line2d_34">
     <path d="M 575.2625 33.034437 
L 595.2625 33.034437 
" style="fill:none;stroke:#1f77b4;stroke-linecap:square;stroke-width:1.5;"/>
    </g>
    <g id="line2d_35"/>
    <g id="text_18">
     <!-- pavillonsNetwork.node[0].veinsmobility -->
     <g transform="translate(603.2625 36.534437)scale(0.1 -0.1)">
      <defs>
       <path d="M 2194 1759 
Q 1497 1759 1228 1600 
Q 959 1441 959 1056 
Q 959 750 1161 570 
Q 1363 391 1709 391 
Q 2188 391 2477 730 
Q 2766 1069 2766 1631 
L 2766 1759 
L 2194 1759 
z
M 3341 1997 
L 3341 0 
L 2766 0 
L 2766 531 
Q 2569 213 2275 61 
Q 1981 -91 1556 -91 
Q 1019 -91 701 211 
Q 384 513 384 1019 
Q 384 1609 779 1909 
Q 1175 2209 1959 2209 
L 2766 2209 
L 2766 2266 
Q 2766 2663 2505 2880 
Q 2244 3097 1772 3097 
Q 1472 3097 1187 3025 
Q 903 2953 641 2809 
L 641 3341 
Q 956 3463 1253 3523 
Q 1550 3584 1831 3584 
Q 2591 3584 2966 3190 
Q 3341 2797 3341 1997 
z
" id="DejaVuSans-61" transform="scale(0.015625)"/>
       <path d="M 191 3500 
L 800 3500 
L 1894 563 
L 2988 3500 
L 3597 3500 
L 2284 0 
L 1503 0 
L 191 3500 
z
" id="DejaVuSans-76" transform="scale(0.015625)"/>
       <path d="M 603 4863 
L 1178 4863 
L 1178 0 
L 603 0 
L 603 4863 
z
" id="DejaVuSans-6c" transform="scale(0.015625)"/>
       <path d="M 1959 3097 
Q 1497 3097 1228 2736 
Q 959 2375 959 1747 
Q 959 1119 1226 758 
Q 1494 397 1959 397 
Q 2419 397 2687 759 
Q 2956 1122 2956 1747 
Q 2956 2369 2687 2733 
Q 2419 3097 1959 3097 
z
M 1959 3584 
Q 2709 3584 3137 3096 
Q 3566 2609 3566 1747 
Q 3566 888 3137 398 
Q 2709 -91 1959 -91 
Q 1206 -91 779 398 
Q 353 888 353 1747 
Q 353 2609 779 3096 
Q 1206 3584 1959 3584 
z
" id="DejaVuSans-6f" transform="scale(0.015625)"/>
       <path d="M 3513 2113 
L 3513 0 
L 2938 0 
L 2938 2094 
Q 2938 2591 2744 2837 
Q 2550 3084 2163 3084 
Q 1697 3084 1428 2787 
Q 1159 2491 1159 1978 
L 1159 0 
L 581 0 
L 581 3500 
L 1159 3500 
L 1159 2956 
Q 1366 3272 1645 3428 
Q 1925 3584 2291 3584 
Q 2894 3584 3203 3211 
Q 3513 2838 3513 2113 
z
" id="DejaVuSans-6e" transform="scale(0.015625)"/>
       <path d="M 628 4666 
L 1478 4666 
L 3547 763 
L 3547 4666 
L 4159 4666 
L 4159 0 
L 3309 0 
L 1241 3903 
L 1241 0 
L 628 0 
L 628 4666 
z
" id="DejaVuSans-4e" transform="scale(0.015625)"/>
       <path d="M 1172 4494 
L 1172 3500 
L 2356 3500 
L 2356 3053 
L 1172 3053 
L 1172 1153 
Q 1172 725 1289 603 
Q 1406 481 1766 481 
L 2356 481 
L 2356 0 
L 1766 0 
Q 1100 0 847 248 
Q 594 497 594 1153 
L 594 3053 
L 172 3053 
L 172 3500 
L 594 3500 
L 594 4494 
L 1172 4494 
z
" id="DejaVuSans-74" transform="scale(0.015625)"/>
       <path d="M 269 3500 
L 844 3500 
L 1563 769 
L 2278 3500 
L 2956 3500 
L 3675 769 
L 4391 3500 
L 4966 3500 
L 4050 0 
L 3372 0 
L 2619 2869 
L 1863 0 
L 1184 0 
L 269 3500 
z
" id="DejaVuSans-77" transform="scale(0.015625)"/>
       <path d="M 2631 2963 
Q 2534 3019 2420 3045 
Q 2306 3072 2169 3072 
Q 1681 3072 1420 2755 
Q 1159 2438 1159 1844 
L 1159 0 
L 581 0 
L 581 3500 
L 1159 3500 
L 1159 2956 
Q 1341 3275 1631 3429 
Q 1922 3584 2338 3584 
Q 2397 3584 2469 3576 
Q 2541 3569 2628 3553 
L 2631 2963 
z
" id="DejaVuSans-72" transform="scale(0.015625)"/>
       <path d="M 581 4863 
L 1159 4863 
L 1159 1991 
L 2875 3500 
L 3609 3500 
L 1753 1863 
L 3688 0 
L 2938 0 
L 1159 1709 
L 1159 0 
L 581 0 
L 581 4863 
z
" id="DejaVuSans-6b" transform="scale(0.015625)"/>
       <path d="M 684 794 
L 1344 794 
L 1344 0 
L 684 0 
L 684 794 
z
" id="DejaVuSans-2e" transform="scale(0.015625)"/>
       <path d="M 550 4863 
L 1875 4863 
L 1875 4416 
L 1125 4416 
L 1125 -397 
L 1875 -397 
L 1875 -844 
L 550 -844 
L 550 4863 
z
" id="DejaVuSans-5b" transform="scale(0.015625)"/>
       <path d="M 1947 4863 
L 1947 -844 
L 622 -844 
L 622 -397 
L 1369 -397 
L 1369 4416 
L 622 4416 
L 622 4863 
L 1947 4863 
z
" id="DejaVuSans-5d" transform="scale(0.015625)"/>
       <path d="M 3116 1747 
Q 3116 2381 2855 2742 
Q 2594 3103 2138 3103 
Q 1681 3103 1420 2742 
Q 1159 2381 1159 1747 
Q 1159 1113 1420 752 
Q 1681 391 2138 391 
Q 2594 391 2855 752 
Q 3116 1113 3116 1747 
z
M 1159 2969 
Q 1341 3281 1617 3432 
Q 1894 3584 2278 3584 
Q 2916 3584 3314 3078 
Q 3713 2572 3713 1747 
Q 3713 922 3314 415 
Q 2916 -91 2278 -91 
Q 1894 -91 1617 61 
Q 1341 213 1159 525 
L 1159 0 
L 581 0 
L 581 4863 
L 1159 4863 
L 1159 2969 
z
" id="DejaVuSans-62" transform="scale(0.015625)"/>
       <path d="M 2059 -325 
Q 1816 -950 1584 -1140 
Q 1353 -1331 966 -1331 
L 506 -1331 
L 506 -850 
L 844 -850 
Q 1081 -850 1212 -737 
Q 1344 -625 1503 -206 
L 1606 56 
L 191 3500 
L 800 3500 
L 1894 763 
L 2988 3500 
L 3597 3500 
L 2059 -325 
z
" id="DejaVuSans-79" transform="scale(0.015625)"/>
      </defs>
      <use xlink:href="#DejaVuSans-70"/>
      <use x="63.476562" xlink:href="#DejaVuSans-61"/>
      <use x="124.755859" xlink:href="#DejaVuSans-76"/>
      <use x="183.935547" xlink:href="#DejaVuSans-69"/>
      <use x="211.71875" xlink:href="#DejaVuSans-6c"/>
      <use x="239.501953" xlink:href="#DejaVuSans-6c"/>
      <use x="267.285156" xlink:href="#DejaVuSans-6f"/>
      <use x="328.466797" xlink:href="#DejaVuSans-6e"/>
      <use x="391.845703" xlink:href="#DejaVuSans-73"/>
      <use x="443.945312" xlink:href="#DejaVuSans-4e"/>
      <use x="518.75" xlink:href="#DejaVuSans-65"/>
      <use x="580.273438" xlink:href="#DejaVuSans-74"/>
      <use x="619.482422" xlink:href="#DejaVuSans-77"/>
      <use x="701.269531" xlink:href="#DejaVuSans-6f"/>
      <use x="762.451172" xlink:href="#DejaVuSans-72"/>
      <use x="803.564453" xlink:href="#DejaVuSans-6b"/>
      <use x="861.474609" xlink:href="#DejaVuSans-2e"/>
      <use x="893.261719" xlink:href="#DejaVuSans-6e"/>
      <use x="956.640625" xlink:href="#DejaVuSans-6f"/>
      <use x="1017.822266" xlink:href="#DejaVuSans-64"/>
      <use x="1081.298828" xlink:href="#DejaVuSans-65"/>
      <use x="1142.822266" xlink:href="#DejaVuSans-5b"/>
      <use x="1181.835938" xlink:href="#DejaVuSans-30"/>
      <use x="1245.458984" xlink:href="#DejaVuSans-5d"/>
      <use x="1284.472656" xlink:href="#DejaVuSans-2e"/>
      <use x="1316.259766" xlink:href="#DejaVuSans-76"/>
      <use x="1375.439453" xlink:href="#DejaVuSans-65"/>
      <use x="1436.962891" xlink:href="#DejaVuSans-69"/>
      <use x="1464.746094" xlink:href="#DejaVuSans-6e"/>
      <use x="1528.125" xlink:href="#DejaVuSans-73"/>
      <use x="1580.224609" xlink:href="#DejaVuSans-6d"/>
      <use x="1677.636719" xlink:href="#DejaVuSans-6f"/>
      <use x="1738.818359" xlink:href="#DejaVuSans-62"/>
      <use x="1802.294922" xlink:href="#DejaVuSans-69"/>
      <use x="1830.078125" xlink:href="#DejaVuSans-6c"/>
      <use x="1857.861328" xlink:href="#DejaVuSans-69"/>
      <use x="1885.644531" xlink:href="#DejaVuSans-74"/>
      <use x="1924.853516" xlink:href="#DejaVuSans-79"/>
     </g>
    </g>
    <g id="line2d_36">
     <path d="M 575.2625 47.712562 
L 595.2625 47.712562 
" style="fill:none;stroke:#ff7f0e;stroke-linecap:square;stroke-width:1.5;"/>
    </g>
    <g id="line2d_37"/>
    <g id="text_19">
     <!-- pavillonsNetwork.node[10].veinsmobility -->
     <g transform="translate(603.2625 51.212562)scale(0.1 -0.1)">
      <use xlink:href="#DejaVuSans-70"/>
      <use x="63.476562" xlink:href="#DejaVuSans-61"/>
      <use x="124.755859" xlink:href="#DejaVuSans-76"/>
      <use x="183.935547" xlink:href="#DejaVuSans-69"/>
      <use x="211.71875" xlink:href="#DejaVuSans-6c"/>
      <use x="239.501953" xlink:href="#DejaVuSans-6c"/>
      <use x="267.285156" xlink:href="#DejaVuSans-6f"/>
      <use x="328.466797" xlink:href="#DejaVuSans-6e"/>
      <use x="391.845703" xlink:href="#DejaVuSans-73"/>
      <use x="443.945312" xlink:href="#DejaVuSans-4e"/>
      <use x="518.75" xlink:href="#DejaVuSans-65"/>
      <use x="580.273438" xlink:href="#DejaVuSans-74"/>
      <use x="619.482422" xlink:href="#DejaVuSans-77"/>
      <use x="701.269531" xlink:href="#DejaVuSans-6f"/>
      <use x="762.451172" xlink:href="#DejaVuSans-72"/>
      <use x="803.564453" xlink:href="#DejaVuSans-6b"/>
      <use x="861.474609" xlink:href="#DejaVuSans-2e"/>
      <use x="893.261719" xlink:href="#DejaVuSans-6e"/>
      <use x="956.640625" xlink:href="#DejaVuSans-6f"/>
      <use x="1017.822266" xlink:href="#DejaVuSans-64"/>
      <use x="1081.298828" xlink:href="#DejaVuSans-65"/>
      <use x="1142.822266" xlink:href="#DejaVuSans-5b"/>
      <use x="1181.835938" xlink:href="#DejaVuSans-31"/>
      <use x="1245.458984" xlink:href="#DejaVuSans-30"/>
      <use x="1309.082031" xlink:href="#DejaVuSans-5d"/>
      <use x="1348.095703" xlink:href="#DejaVuSans-2e"/>
      <use x="1379.882812" xlink:href="#DejaVuSans-76"/>
      <use x="1439.0625" xlink:href="#DejaVuSans-65"/>
      <use x="1500.585938" xlink:href="#DejaVuSans-69"/>
      <use x="1528.369141" xlink:href="#DejaVuSans-6e"/>
      <use x="1591.748047" xlink:href="#DejaVuSans-73"/>
      <use x="1643.847656" xlink:href="#DejaVuSans-6d"/>
      <use x="1741.259766" xlink:href="#DejaVuSans-6f"/>
      <use x="1802.441406" xlink:href="#DejaVuSans-62"/>
      <use x="1865.917969" xlink:href="#DejaVuSans-69"/>
      <use x="1893.701172" xlink:href="#DejaVuSans-6c"/>
      <use x="1921.484375" xlink:href="#DejaVuSans-69"/>
      <use x="1949.267578" xlink:href="#DejaVuSans-74"/>
      <use x="1988.476562" xlink:href="#DejaVuSans-79"/>
     </g>
    </g>
    <g id="line2d_38">
     <path d="M 575.2625 62.390687 
L 595.2625 62.390687 
" style="fill:none;stroke:#2ca02c;stroke-linecap:square;stroke-width:1.5;"/>
    </g>
    <g id="line2d_39"/>
    <g id="text_20">
     <!-- pavillonsNetwork.node[13].veinsmobility -->
     <g transform="translate(603.2625 65.890687)scale(0.1 -0.1)">
      <defs>
       <path d="M 2597 2516 
Q 3050 2419 3304 2112 
Q 3559 1806 3559 1356 
Q 3559 666 3084 287 
Q 2609 -91 1734 -91 
Q 1441 -91 1130 -33 
Q 819 25 488 141 
L 488 750 
Q 750 597 1062 519 
Q 1375 441 1716 441 
Q 2309 441 2620 675 
Q 2931 909 2931 1356 
Q 2931 1769 2642 2001 
Q 2353 2234 1838 2234 
L 1294 2234 
L 1294 2753 
L 1863 2753 
Q 2328 2753 2575 2939 
Q 2822 3125 2822 3475 
Q 2822 3834 2567 4026 
Q 2313 4219 1838 4219 
Q 1578 4219 1281 4162 
Q 984 4106 628 3988 
L 628 4550 
Q 988 4650 1302 4700 
Q 1616 4750 1894 4750 
Q 2613 4750 3031 4423 
Q 3450 4097 3450 3541 
Q 3450 3153 3228 2886 
Q 3006 2619 2597 2516 
z
" id="DejaVuSans-33" transform="scale(0.015625)"/>
      </defs>
      <use xlink:href="#DejaVuSans-70"/>
      <use x="63.476562" xlink:href="#DejaVuSans-61"/>
      <use x="124.755859" xlink:href="#DejaVuSans-76"/>
      <use x="183.935547" xlink:href="#DejaVuSans-69"/>
      <use x="211.71875" xlink:href="#DejaVuSans-6c"/>
      <use x="239.501953" xlink:href="#DejaVuSans-6c"/>
      <use x="267.285156" xlink:href="#DejaVuSans-6f"/>
      <use x="328.466797" xlink:href="#DejaVuSans-6e"/>
      <use x="391.845703" xlink:href="#DejaVuSans-73"/>
      <use x="443.945312" xlink:href="#DejaVuSans-4e"/>
      <use x="518.75" xlink:href="#DejaVuSans-65"/>
      <use x="580.273438" xlink:href="#DejaVuSans-74"/>
      <use x="619.482422" xlink:href="#DejaVuSans-77"/>
      <use x="701.269531" xlink:href="#DejaVuSans-6f"/>
      <use x="762.451172" xlink:href="#DejaVuSans-72"/>
      <use x="803.564453" xlink:href="#DejaVuSans-6b"/>
      <use x="861.474609" xlink:href="#DejaVuSans-2e"/>
      <use x="893.261719" xlink:href="#DejaVuSans-6e"/>
      <use x="956.640625" xlink:href="#DejaVuSans-6f"/>
      <use x="1017.822266" xlink:href="#DejaVuSans-64"/>
      <use x="1081.298828" xlink:href="#DejaVuSans-65"/>
      <use x="1142.822266" xlink:href="#DejaVuSans-5b"/>
      <use x="1181.835938" xlink:href="#DejaVuSans-31"/>
      <use x="1245.458984" xlink:href="#DejaVuSans-33"/>
      <use x="1309.082031" xlink:href="#DejaVuSans-5d"/>
      <use x="1348.095703" xlink:href="#DejaVuSans-2e"/>
      <use x="1379.882812" xlink:href="#DejaVuSans-76"/>
      <use x="1439.0625" xlink:href="#DejaVuSans-65"/>
      <use x="1500.585938" xlink:href="#DejaVuSans-69"/>
      <use x="1528.369141" xlink:href="#DejaVuSans-6e"/>
      <use x="1591.748047" xlink:href="#DejaVuSans-73"/>
      <use x="1643.847656" xlink:href="#DejaVuSans-6d"/>
      <use x="1741.259766" xlink:href="#DejaVuSans-6f"/>
      <use x="1802.441406" xlink:href="#DejaVuSans-62"/>
      <use x="1865.917969" xlink:href="#DejaVuSans-69"/>
      <use x="1893.701172" xlink:href="#DejaVuSans-6c"/>
      <use x="1921.484375" xlink:href="#DejaVuSans-69"/>
      <use x="1949.267578" xlink:href="#DejaVuSans-74"/>
      <use x="1988.476562" xlink:href="#DejaVuSans-79"/>
     </g>
    </g>
    <g id="line2d_40">
     <path d="M 575.2625 77.068812 
L 595.2625 77.068812 
" style="fill:none;stroke:#d62728;stroke-linecap:square;stroke-width:1.5;"/>
    </g>
    <g id="line2d_41"/>
    <g id="text_21">
     <!-- pavillonsNetwork.node[16].veinsmobility -->
     <g transform="translate(603.2625 80.568812)scale(0.1 -0.1)">
      <defs>
       <path d="M 2113 2584 
Q 1688 2584 1439 2293 
Q 1191 2003 1191 1497 
Q 1191 994 1439 701 
Q 1688 409 2113 409 
Q 2538 409 2786 701 
Q 3034 994 3034 1497 
Q 3034 2003 2786 2293 
Q 2538 2584 2113 2584 
z
M 3366 4563 
L 3366 3988 
Q 3128 4100 2886 4159 
Q 2644 4219 2406 4219 
Q 1781 4219 1451 3797 
Q 1122 3375 1075 2522 
Q 1259 2794 1537 2939 
Q 1816 3084 2150 3084 
Q 2853 3084 3261 2657 
Q 3669 2231 3669 1497 
Q 3669 778 3244 343 
Q 2819 -91 2113 -91 
Q 1303 -91 875 529 
Q 447 1150 447 2328 
Q 447 3434 972 4092 
Q 1497 4750 2381 4750 
Q 2619 4750 2861 4703 
Q 3103 4656 3366 4563 
z
" id="DejaVuSans-36" transform="scale(0.015625)"/>
      </defs>
      <use xlink:href="#DejaVuSans-70"/>
      <use x="63.476562" xlink:href="#DejaVuSans-61"/>
      <use x="124.755859" xlink:href="#DejaVuSans-76"/>
      <use x="183.935547" xlink:href="#DejaVuSans-69"/>
      <use x="211.71875" xlink:href="#DejaVuSans-6c"/>
      <use x="239.501953" xlink:href="#DejaVuSans-6c"/>
      <use x="267.285156" xlink:href="#DejaVuSans-6f"/>
      <use x="328.466797" xlink:href="#DejaVuSans-6e"/>
      <use x="391.845703" xlink:href="#DejaVuSans-73"/>
      <use x="443.945312" xlink:href="#DejaVuSans-4e"/>
      <use x="518.75" xlink:href="#DejaVuSans-65"/>
      <use x="580.273438" xlink:href="#DejaVuSans-74"/>
      <use x="619.482422" xlink:href="#DejaVuSans-77"/>
      <use x="701.269531" xlink:href="#DejaVuSans-6f"/>
      <use x="762.451172" xlink:href="#DejaVuSans-72"/>
      <use x="803.564453" xlink:href="#DejaVuSans-6b"/>
      <use x="861.474609" xlink:href="#DejaVuSans-2e"/>
      <use x="893.261719" xlink:href="#DejaVuSans-6e"/>
      <use x="956.640625" xlink:href="#DejaVuSans-6f"/>
      <use x="1017.822266" xlink:href="#DejaVuSans-64"/>
      <use x="1081.298828" xlink:href="#DejaVuSans-65"/>
      <use x="1142.822266" xlink:href="#DejaVuSans-5b"/>
      <use x="1181.835938" xlink:href="#DejaVuSans-31"/>
      <use x="1245.458984" xlink:href="#DejaVuSans-36"/>
      <use x="1309.082031" xlink:href="#DejaVuSans-5d"/>
      <use x="1348.095703" xlink:href="#DejaVuSans-2e"/>
      <use x="1379.882812" xlink:href="#DejaVuSans-76"/>
      <use x="1439.0625" xlink:href="#DejaVuSans-65"/>
      <use x="1500.585938" xlink:href="#DejaVuSans-69"/>
      <use x="1528.369141" xlink:href="#DejaVuSans-6e"/>
      <use x="1591.748047" xlink:href="#DejaVuSans-73"/>
      <use x="1643.847656" xlink:href="#DejaVuSans-6d"/>
      <use x="1741.259766" xlink:href="#DejaVuSans-6f"/>
      <use x="1802.441406" xlink:href="#DejaVuSans-62"/>
      <use x="1865.917969" xlink:href="#DejaVuSans-69"/>
      <use x="1893.701172" xlink:href="#DejaVuSans-6c"/>
      <use x="1921.484375" xlink:href="#DejaVuSans-69"/>
      <use x="1949.267578" xlink:href="#DejaVuSans-74"/>
      <use x="1988.476562" xlink:href="#DejaVuSans-79"/>
     </g>
    </g>
    <g id="line2d_42">
     <path d="M 575.2625 91.746937 
L 595.2625 91.746937 
" style="fill:none;stroke:#9467bd;stroke-linecap:square;stroke-width:1.5;"/>
    </g>
    <g id="line2d_43"/>
    <g id="text_22">
     <!-- pavillonsNetwork.node[7].veinsmobility -->
     <g transform="translate(603.2625 95.246937)scale(0.1 -0.1)">
      <use xlink:href="#DejaVuSans-70"/>
      <use x="63.476562" xlink:href="#DejaVuSans-61"/>
      <use x="124.755859" xlink:href="#DejaVuSans-76"/>
      <use x="183.935547" xlink:href="#DejaVuSans-69"/>
      <use x="211.71875" xlink:href="#DejaVuSans-6c"/>
      <use x="239.501953" xlink:href="#DejaVuSans-6c"/>
      <use x="267.285156" xlink:href="#DejaVuSans-6f"/>
      <use x="328.466797" xlink:href="#DejaVuSans-6e"/>
      <use x="391.845703" xlink:href="#DejaVuSans-73"/>
      <use x="443.945312" xlink:href="#DejaVuSans-4e"/>
      <use x="518.75" xlink:href="#DejaVuSans-65"/>
      <use x="580.273438" xlink:href="#DejaVuSans-74"/>
      <use x="619.482422" xlink:href="#DejaVuSans-77"/>
      <use x="701.269531" xlink:href="#DejaVuSans-6f"/>
      <use x="762.451172" xlink:href="#DejaVuSans-72"/>
      <use x="803.564453" xlink:href="#DejaVuSans-6b"/>
      <use x="861.474609" xlink:href="#DejaVuSans-2e"/>
      <use x="893.261719" xlink:href="#DejaVuSans-6e"/>
      <use x="956.640625" xlink:href="#DejaVuSans-6f"/>
      <use x="1017.822266" xlink:href="#DejaVuSans-64"/>
      <use x="1081.298828" xlink:href="#DejaVuSans-65"/>
      <use x="1142.822266" xlink:href="#DejaVuSans-5b"/>
      <use x="1181.835938" xlink:href="#DejaVuSans-37"/>
      <use x="1245.458984" xlink:href="#DejaVuSans-5d"/>
      <use x="1284.472656" xlink:href="#DejaVuSans-2e"/>
      <use x="1316.259766" xlink:href="#DejaVuSans-76"/>
      <use x="1375.439453" xlink:href="#DejaVuSans-65"/>
      <use x="1436.962891" xlink:href="#DejaVuSans-69"/>
      <use x="1464.746094" xlink:href="#DejaVuSans-6e"/>
      <use x="1528.125" xlink:href="#DejaVuSans-73"/>
      <use x="1580.224609" xlink:href="#DejaVuSans-6d"/>
      <use x="1677.636719" xlink:href="#DejaVuSans-6f"/>
      <use x="1738.818359" xlink:href="#DejaVuSans-62"/>
      <use x="1802.294922" xlink:href="#DejaVuSans-69"/>
      <use x="1830.078125" xlink:href="#DejaVuSans-6c"/>
      <use x="1857.861328" xlink:href="#DejaVuSans-69"/>
      <use x="1885.644531" xlink:href="#DejaVuSans-74"/>
      <use x="1924.853516" xlink:href="#DejaVuSans-79"/>
     </g>
    </g>
   </g>
  </g>
 </g>
 <defs>
  <clipPath id="pcc22c80da4">
   <rect height="205.263667" width="736.108844" x="80.922406" y="19.936"/>
  </clipPath>
 </defs>
</svg>
